<?xml version="1.0" encoding="utf-8"?><svg viewBox="0 0 512 512" xmlns="http://www.w3.org/2000/svg" xmlns:xlink="http://www.w3.org/1999/xlink"><style>:root>svg{display:none}:root>svg:target{display:block}</style><svg fill="none" viewBox="0 0 12 14" id="data-grey" xmlns="http://www.w3.org/2000/svg"><path d="M10.667 1.75h-.584V.583H8.917V1.75H3.083V.583H1.917V1.75h-.584A1.17 1.17 0 0 0 .167 2.917v9.333a1.17 1.17 0 0 0 1.166 1.167h9.334a1.17 1.17 0 0 0 1.166-1.167V2.917a1.17 1.17 0 0 0-1.166-1.167Zm0 10.5H1.333V4.667h9.334v7.583Z" fill="#999"/></svg><svg fill="none" viewBox="0 0 12 14" id="data-white" xmlns="http://www.w3.org/2000/svg"><path d="M10.667 1.75h-.584V.583H8.917V1.75H3.083V.583H1.917V1.75h-.584A1.17 1.17 0 0 0 .167 2.917v9.333a1.17 1.17 0 0 0 1.166 1.167h9.334a1.17 1.17 0 0 0 1.166-1.167V2.917a1.17 1.17 0 0 0-1.166-1.167Zm0 10.5H1.333V4.667h9.334v7.583Z" fill="#fff"/></svg><svg fill="none" viewBox="0 0 26 25" id="favicon" xmlns="http://www.w3.org/2000/svg"><path fill-rule="evenodd" clip-rule="evenodd" d="M5.5 5v15h15L5.5 5Zm-5-5v25h25V0H.5Z" fill="#FF6E30"/></svg><svg fill="none" viewBox="0 0 18 18" id="phone" xmlns="http://www.w3.org/2000/svg"><path d="M16.343 12.098a10.49 10.49 0 0 1-3.236-.513.896.896 0 0 0-.926.22l-1.44 1.806c-2.593-1.238-5.023-3.575-6.315-6.261l1.787-1.522a.935.935 0 0 0 .22-.935 10.223 10.223 0 0 1-.513-3.236.916.916 0 0 0-.907-.907H1.84C1.346.75.75.97.75 1.657c0 8.516 7.086 15.593 15.593 15.593.65 0 .907-.578.907-1.082v-3.162a.916.916 0 0 0-.907-.908Z" fill="#FF6E30"/></svg><svg viewBox="0 0 512 512" style="enable-background:new 0 0 512 512" xml:space="preserve" id="right-arrow" xmlns="http://www.w3.org/2000/svg"><path d="m506.134 241.843-.018-.019-104.504-104c-7.829-7.791-20.492-7.762-28.285.068-7.792 7.829-7.762 20.492.067 28.284L443.558 236H20c-11.046 0-20 8.954-20 20s8.954 20 20 20h423.557l-70.162 69.824c-7.829 7.792-7.859 20.455-.067 28.284 7.793 7.831 20.457 7.858 28.285.068l104.504-104 .018-.019c7.833-7.818 7.808-20.522-.001-28.314z"/></svg><svg fill="none" viewBox="0 0 25 25" id="search" xmlns="http://www.w3.org/2000/svg"><path d="m24.911 22.814-5.057-4.457c1.487-1.98 2.292-4.403 2.292-6.95 0-3.05-1.156-5.909-3.245-8.065C16.812 1.186 14.03 0 11.073 0c-2.957 0-5.74 1.19-7.829 3.342C1.152 5.494 0 8.357 0 11.407c0 3.045 1.155 5.912 3.244 8.064 2.09 2.156 4.869 3.343 7.829 3.343 2.473 0 4.82-.83 6.743-2.358l5.058 4.453a.3.3 0 0 0 .214.091.294.294 0 0 0 .214-.091l1.61-1.654a.312.312 0 0 0 .088-.22.319.319 0 0 0-.089-.221ZM16.92 17.43c-1.565 1.608-3.639 2.494-5.846 2.494-2.207 0-4.282-.886-5.847-2.494a8.603 8.603 0 0 1-2.42-6.023c0-2.274.86-4.415 2.42-6.023 1.565-1.608 3.64-2.494 5.847-2.494 2.207 0 4.285.882 5.846 2.494a8.602 8.602 0 0 1 2.422 6.023c0 2.274-.86 4.414-2.422 6.023Z" fill="#fff"/></svg></svg>